<svg width="41" height="49" fill="none" xmlns="http://www.w3.org/2000/svg"><path d="M20.5.172c-5.402 0-10.585 1.996-14.424 5.555C2.238 9.286.054 14.12 0 19.178c0 13.151 18.066 27.79 18.834 28.414a2.668 2.668 0 001.666.576c.61 0 1.201-.204 1.666-.576C23.062 46.968 41 32.329 41 19.178c-.054-5.058-2.238-9.892-6.076-13.451C31.085 2.167 25.902.172 20.5.172zm0 26.398a9.406 9.406 0 01-4.983-1.416c-1.475-.923-2.624-2.235-3.303-3.77a7.904 7.904 0 01-.51-4.852 8.248 8.248 0 012.454-4.3 9.172 9.172 0 014.592-2.3 9.535 9.535 0 015.182.478c1.639.636 3.04 1.713 4.025 3.094a8.025 8.025 0 011.512 4.666c0 2.228-.945 4.364-2.627 5.94-1.682 1.575-3.963 2.46-6.342 2.46z" fill="#DB2A2A"/></svg>